PathFileType	4	(X/Y/Z)	D:\MotionData\NordSprintingStudy\Kristen_Nord_test_zero_plates\Trimmed_NordZeroed000004.trc
DataRate	CameraRate	NumFrames	NumMarkers	Units	OrigDataRate	OrigDataStartFrame	OrigNumFrames
200.00	200.00	      4	52	mm	200.00	1435	      1912
Frame#	Time	C7			R_Shoulder			L_Shoulder			Sternum			R_humerus			R_elbow_med			R_elbow_lat			R_forearm			R_wrist_radius			R_wrist_ulna			L_humerus			L_elbow_med			L_elbow_lat			L_forearm			L_wrist_radius			L_wrist_ulna			r.ASIS			r.PSIS			r_IC			L.ASIS			L.PSIS			l_IC			r_thigh1			r_thigh2			r_thigh3			r_thigh4			r_thigh5			r_knee			r_mknee			r_shank_antsup			r_sh2			r_sh3			r_sh4			r_ankle			r_mankle			r_calc			r_5meta			r_toe			L_thigh1			L_thigh2			L_thigh3			L_thigh4			L_knee			L_mknee			L_shank_antsup			L_sh2			L_sh3			L_ankle			L_mankle			L_calc			L_5meta			L_toe			
		X1	Y1	Z1	X2	Y2	Z2	X3	Y3	Z3	X4	Y4	Z4	X5	Y5	Z5	X6	Y6	Z6	X7	Y7	Z7	X8	Y8	Z8	X9	Y9	Z9	X10	Y10	Z10	X11	Y11	Z11	X12	Y12	Z12	X13	Y13	Z13	X14	Y14	Z14	X15	Y15	Z15	X16	Y16	Z16	X17	Y17	Z17	X18	Y18	Z18	X19	Y19	Z19	X20	Y20	Z20	X21	Y21	Z21	X22	Y22	Z22	X23	Y23	Z23	X24	Y24	Z24	X25	Y25	Z25	X26	Y26	Z26	X27	Y27	Z27	X28	Y28	Z28	X29	Y29	Z29	X30	Y30	Z30	X31	Y31	Z31	X32	Y32	Z32	X33	Y33	Z33	X34	Y34	Z34	X35	Y35	Z35	X36	Y36	Z36	X37	Y37	Z37	X38	Y38	Z38	X39	Y39	Z39	X40	Y40	Z40	X41	Y41	Z41	X42	Y42	Z42	X43	Y43	Z43	X44	Y44	Z44	X45	Y45	Z45	X46	Y46	Z46	X47	Y47	Z47	X48	Y48	Z48	X49	Y49	Z49	X50	Y50	Z50	X51	Y51	Z51	X52	Y52	Z52	

1435	7.170	1213.32727	754.74286	1166.29089	1334.74438	794.00842	1152.61694	1078.28674	781.70471	1159.78589	1202.70862	847.40320	1062.62585	1487.81506	701.66205	1136.65894	1616.86047	692.85651	1056.80676	1594.36780	643.71558	1122.88586	1607.13318	747.81366	1190.85217	1577.14563	875.49738	1203.22437	1632.39270	849.08765	1238.19531	941.31018	662.40588	1138.48108	789.85663	657.87408	1063.05664	816.15649	620.83929	1141.41333	826.29840	709.03564	1194.67847	822.79156	827.53564	1232.09241	896.51227	822.39258	1213.53296	1337.11206	601.10889	659.26709	1293.23499	515.25238	832.25873	1375.06836	596.79309	776.20313	1106.80457	576.29248	653.05127	1180.26074	503.01022	834.61377	1073.06738	592.21405	759.05804	1363.15942	496.51990	459.30835	1355.91260	438.14792	358.75473	1392.68567	396.71774	348.50256	1418.21155	414.77243	503.31393	1407.15894	357.85623	401.44128	1391.95654	317.51123	305.60278	1270.24426	305.21695	307.06259	1416.70911	208.09622	313.87076	1422.93286	86.81907	325.43832	1420.50012	213.87924	390.36032	1411.94373	97.35487	405.39801	1419.89355	-70.78417	370.89343	1339.21863	-72.36140	354.69806	1355.94727	-76.37367	444.06830	1429.04053	-190.27632	309.49295	1387.56458	-181.13435	260.94553	1038.49023	443.41284	506.14966	1032.26318	371.30212	385.72272	1044.56567	343.13190	570.36945	1056.29993	275.12012	448.97324	1035.12207	269.63153	338.61456	1161.94031	268.84961	309.78598	1025.72766	168.26369	324.95081	1038.96484	178.08525	412.93466	1044.81677	56.72710	414.66046	1076.02905	-108.09048	382.35446	1150.66565	-102.20708	353.82648	1119.31311	-112.22360	440.36322	1096.77246	-243.56706	304.66858	1131.40417	-218.42751	260.98267	
1436	7.175	1213.25085	755.15857	1166.06726	1334.71924	794.41650	1152.34143	1078.20752	782.12677	1159.50659	1202.66077	847.76147	1062.34351	1487.69250	701.97797	1136.51904	1616.81250	693.15784	1056.66541	1594.28601	643.99384	1122.74878	1607.10266	748.09534	1190.84216	1577.07581	875.77435	1202.98657	1632.28479	849.41284	1237.99634	941.23663	662.74677	1138.23706	789.82825	658.19360	1062.82397	816.11639	621.18225	1141.18323	826.29401	709.39392	1194.37109	822.76477	827.91113	1231.79456	896.10211	823.02423	1213.01294	1337.09485	601.30908	659.12921	1293.26770	515.45715	832.16077	1375.61780	596.88177	776.55322	1106.73206	576.43195	652.89502	1180.19946	503.28452	834.47607	1073.01379	592.40900	758.91052	1363.15381	496.57193	459.22623	1355.76538	437.91718	358.95090	1392.68091	396.75360	348.46631	1418.20459	414.88150	503.28372	1407.14307	357.92920	401.41168	1391.93042	317.55252	305.62100	1270.22546	305.23709	307.05017	1416.02490	208.40314	313.31860	1422.91235	86.82801	325.41907	1420.83496	213.57544	390.78424	1411.90710	97.34341	405.40045	1419.85669	-70.79284	370.93423	1339.87415	-73.01633	354.75339	1355.91272	-76.39668	444.04199	1429.01953	-190.29037	309.51230	1387.78333	-181.05309	260.70703	1038.45239	443.53210	506.08350	1032.21106	371.30429	385.72357	1044.53308	343.24173	570.37378	1056.23523	275.22879	448.93332	1035.10352	269.63651	338.57498	1161.96094	268.91077	309.78668	1025.74268	168.26949	324.93893	1038.96313	178.07394	412.91537	1044.81213	56.75246	414.64636	1076.03284	-108.05347	382.32422	1150.71191	-102.19069	353.81262	1119.30994	-112.20384	440.33508	1096.78845	-243.58713	304.69995	1133.25977	-218.63103	260.15988	
1437	7.180	1213.18103	755.55402	1165.80261	1334.68066	794.74194	1152.09924	1078.14233	782.54132	1159.25342	1202.59888	848.11542	1062.12415	1487.63452	702.30835	1136.32642	1616.72998	693.38904	1056.45764	1594.17578	644.26642	1122.60486	1607.01245	748.40558	1190.64783	1577.01245	876.10547	1202.72021	1632.24487	849.72357	1237.72925	941.30316	663.09436	1138.11377	788.96521	658.39764	1062.54041	816.07343	621.52142	1140.98035	826.25323	709.74158	1194.13916	822.71539	828.35120	1231.48523	896.07758	823.38446	1212.70251	1337.11877	601.50189	658.96118	1293.13538	515.72998	832.01062	1374.97485	597.21716	775.98700	1106.70874	576.63422	652.77576	1180.15613	503.55078	834.34216	1072.99829	592.67181	758.74182	1363.17981	496.83231	459.19217	1355.77527	437.92743	358.86478	1392.65686	396.78531	348.41257	1418.18457	414.94168	503.26462	1407.12488	358.00488	401.37146	1391.97095	317.56351	305.53149	1270.25427	305.28592	307.02109	1415.98364	208.40926	313.28625	1422.90393	86.83294	325.41116	1420.83008	213.60603	390.75171	1411.98694	97.19179	405.71231	1419.87524	-70.75815	370.81686	1339.88171	-72.97717	354.79404	1355.88574	-76.41540	444.01849	1429.03247	-190.25185	309.41724	1387.85596	-180.97963	260.71796	1038.47986	443.64999	505.97507	1032.20569	371.41293	385.62967	1044.53528	343.39258	570.35675	1056.22864	275.21640	448.95947	1035.11401	269.65579	338.57349	1161.95227	268.88403	309.79135	1025.70056	168.39841	324.94806	1039.02893	178.09631	412.90323	1044.80640	56.76024	414.64194	1076.04956	-108.03935	382.36932	1150.75806	-102.15239	353.79111	1119.32043	-112.17547	440.29330	1096.77161	-243.57678	304.76343	1131.40198	-218.45271	261.03397	
1438	7.185	1213.13513	755.96820	1165.55444	1334.64355	795.08563	1151.82898	1078.13098	782.94043	1158.92456	1202.55090	848.46625	1061.85095	1487.51233	702.62512	1136.01868	1617.33594	693.48230	1056.28979	1594.07581	644.53528	1122.48218	1606.90137	748.73450	1190.41980	1576.96167	876.42639	1202.46497	1632.18066	850.05402	1237.50012	941.24469	663.49689	1137.86145	788.91943	658.73309	1062.32666	816.01355	621.87744	1140.74634	826.17072	710.08844	1193.91919	822.68518	828.69885	1231.20825	896.05188	823.75037	1212.40125	1337.13672	601.67316	658.83606	1293.39551	515.95959	832.05573	1375.55334	597.32129	776.24231	1107.03503	576.38837	651.98621	1180.15649	503.80508	834.20178	1072.97864	592.88324	758.57635	1363.30798	496.67233	459.00095	1355.75317	437.97177	358.81302	1392.63196	396.83432	348.36890	1418.19458	415.04474	503.23071	1407.12903	358.03107	401.34332	1391.96851	317.58417	305.49524	1270.14954	304.71436	307.31003	1415.96423	208.41571	313.25104	1422.91809	86.87222	325.38724	1420.84180	213.62630	390.73352	1412.16125	97.30215	405.67023	1419.88489	-70.68626	370.81497	1339.85034	-72.97816	354.75928	1355.86560	-76.43000	443.99780	1429.05078	-190.20390	309.42316	1387.81384	-181.01604	260.69168	1038.44958	443.70407	505.88678	1032.17761	371.45361	385.60703	1044.51318	343.48486	570.25922	1056.18420	275.44360	448.78247	1035.07556	269.68796	338.52194	1161.92444	268.92099	309.78625	1025.73560	168.39568	324.92731	1038.99182	178.11377	412.87656	1044.82642	56.78773	414.61600	1076.09058	-108.07917	382.40982	1150.78479	-102.16161	353.68607	1119.35400	-112.13827	440.25717	1096.82068	-243.54997	304.72617	1131.35632	-218.47273	261.11710	
